<svg width="80" height="80" xmlns="http://www.w3.org/2000/svg">
 <!-- Created with Method Draw - http://github.com/duopixel/Method-Draw/ -->
 <g>
  <title>Background</title>
  <g display="none" overflow="visible" y="0" x="0" height="100%" width="100%" id="canvasGrid">
   <rect fill="url(#gridpattern)" stroke-width="0" y="0" x="0" height="100%" width="100%"/>
  </g>
 </g>
 <g>
  <title>Image</title>
  <ellipse ry="40" rx="40" id="svg_1" cy="39.97725" cx="39.97726" stroke-width="0" stroke="#000" fill="#197DB3"/>
  <path stroke="#e2e2e2" transform="rotate(89.52165985107422 40.02702331542969,40.025577545166016) " id="svg_3" d="m37.57987,56.1161l8.53523,-9.93826l-16.50245,0l-16.50241,0l0,-6.15226l0,-6.15226l16.3131,0c8.97219,0 16.31308,-0.31183 16.31308,-0.69295c0,-0.38111 -3.5718,-4.85333 -7.93733,-9.93826l-7.93735,-9.24532l7.33654,0l7.33651,0l11.20451,13.02686l11.20451,13.02685l-11.226,13.00193l-11.226,13.00193l-7.72359,0l-7.72361,0l8.53525,-9.93827l0,0z" stroke-width="0" fill="#e2e2e2"/>
 </g>
</svg>